<svg width="280" height="145" xmlns="http://www.w3.org/2000/svg">
 <g>
  <title>Layer 1</title>
  <g id="svg_3">
   <path id="svg_2" d="m10,10l248,0l0,113l-248,0c0,-18.83331 0,-37.66666 0,-56.5c0,-9.41666 0,-18.83333 0,-28.25c0,-9.41666 0,-18.83333 0,-28.25z" opacity="undefined" fill="#85c12f" stroke="null"/>
   <path id="svg_8" d="m22,19l248,0l0,113l-248,0c0,-18.83331 0,-37.66666 0,-56.5c0,-9.41666 0,-18.83333 0,-28.25c0,-9.41666 0,-18.83333 0,-28.25z" opacity="undefined" fill="#0047b0" stroke="null"/>
   <text xml:space="preserve" text-anchor="start" font-family="'STIX Two Text'" font-size="100" stroke-width="0" id="svg_9" y="129.30396" x="110.13451" fill="#ffffff" transform="matrix(1.28299 0 0 1.13125 -106.893 -31.3447)" stroke="null" font-weight="bold">FBS</text>
  </g>
 </g>

</svg>